<?xml version="1.0" encoding="UTF-8"?>
<!DOCTYPE svg PUBLIC "-//W3C//DTD SVG 1.1//EN" "http://www.w3.org/Graphics/SVG/1.1/DTD/svg11.dtd">
<svg xmlns="http://www.w3.org/2000/svg" version="1.1" width="500px" height="500px" style="shape-rendering:geometricPrecision; text-rendering:geometricPrecision; image-rendering:optimizeQuality; fill-rule:evenodd; clip-rule:evenodd" xmlns:xlink="http://www.w3.org/1999/xlink">
<g><path style="opacity:0.226" fill="#c2deea" d="M 271.5,99.5 C 257.163,98.2497 242.83,98.2497 228.5,99.5C 235.097,97.9699 241.93,97.3032 249,97.5C 256.723,97.3501 264.223,98.0168 271.5,99.5 Z"/></g>
<g><path style="opacity:1" fill="#0771bd" d="M 271.5,99.5 C 274.059,99.1984 276.393,99.5318 278.5,100.5C 281.219,101.913 284.219,102.58 287.5,102.5C 290.452,104.41 293.786,105.41 297.5,105.5C 299.102,107.074 301.102,107.741 303.5,107.5C 307.497,108.603 311.164,110.269 314.5,112.5C 314.91,115.431 316.244,116.097 318.5,114.5C 321.485,115.326 324.151,116.659 326.5,118.5C 326.821,120.048 327.821,120.715 329.5,120.5C 331.368,121.263 333.035,122.263 334.5,123.5C 335.035,125.446 336.368,126.446 338.5,126.5C 339.035,128.446 340.368,129.446 342.5,129.5C 346.122,131.787 349.455,134.453 352.5,137.5C 352.738,139.404 353.738,140.738 355.5,141.5C 355.833,141.5 356.167,141.5 356.5,141.5C 357.419,144.089 359.086,146.089 361.5,147.5C 361.833,148.5 362.5,149.167 363.5,149.5C 364.66,151.203 363.993,151.869 361.5,151.5C 287.001,150.667 212.334,150.167 137.5,150C 140.544,149.641 140.878,148.974 138.5,148C 139.252,147.329 139.586,146.496 139.5,145.5C 140.5,145.167 141.167,144.5 141.5,143.5C 142.5,143.167 143.167,142.5 143.5,141.5C 144.5,141.167 145.167,140.5 145.5,139.5C 146.5,139.167 147.167,138.5 147.5,137.5C 150.089,136.581 152.089,134.914 153.5,132.5C 155.749,131.92 157.415,130.587 158.5,128.5C 160.749,127.92 162.415,126.587 163.5,124.5C 166.198,124.155 168.198,122.822 169.5,120.5C 171.153,120.34 172.486,119.674 173.5,118.5C 175.027,118.573 176.027,117.906 176.5,116.5C 178.483,116.843 179.817,116.176 180.5,114.5C 182.153,114.34 183.486,113.674 184.5,112.5C 184.842,111.662 185.508,111.328 186.5,111.5C 188.698,111.88 190.365,111.213 191.5,109.5C 194.491,109.834 196.824,108.834 198.5,106.5C 199.209,105.596 200.209,105.263 201.5,105.5C 204.495,105.706 207.162,105.04 209.5,103.5C 212.152,103.59 214.485,102.924 216.5,101.5C 220.21,99.8643 224.21,99.1977 228.5,99.5C 242.83,98.2497 257.163,98.2497 271.5,99.5 Z"/></g>
<g><path style="opacity:0.027" fill="#c4e1ea" d="M 278.5,100.5 C 281.781,100.42 284.781,101.087 287.5,102.5C 284.219,102.58 281.219,101.913 278.5,100.5 Z"/></g>
<g><path style="opacity:0.816" fill="#85b3d1" d="M 216.5,101.5 C 214.485,102.924 212.152,103.59 209.5,103.5C 211.438,101.837 213.772,101.171 216.5,101.5 Z"/></g>
<g><path style="opacity:0.537" fill="#aed2e4" d="M 287.5,102.5 C 291.116,102.899 294.45,103.899 297.5,105.5C 293.786,105.41 290.452,104.41 287.5,102.5 Z"/></g>
<g><path style="opacity:0.808" fill="#94bdd9" d="M 209.5,103.5 C 207.162,105.04 204.495,105.706 201.5,105.5C 203.838,103.96 206.505,103.294 209.5,103.5 Z"/></g>
<g><path style="opacity:0.424" fill="#aed1e3" d="M 297.5,105.5 C 299.786,105.595 301.786,106.262 303.5,107.5C 301.102,107.741 299.102,107.074 297.5,105.5 Z"/></g>
<g><path style="opacity:0.824" fill="#8ab5d4" d="M 198.5,106.5 C 196.824,108.834 194.491,109.834 191.5,109.5C 193.426,107.707 195.759,106.707 198.5,106.5 Z"/></g>
<g><path style="opacity:0.898" fill="#8cb4d3" d="M 191.5,109.5 C 190.365,111.213 188.698,111.88 186.5,111.5C 187.93,110.463 189.597,109.796 191.5,109.5 Z"/></g>
<g><path style="opacity:0.435" fill="#bcdae6" d="M 184.5,112.5 C 183.486,113.674 182.153,114.34 180.5,114.5C 181.287,112.896 182.62,112.229 184.5,112.5 Z"/></g>
<g><path style="opacity:1" fill="#7ca8d1" d="M 314.5,112.5 C 316.38,112.229 317.713,112.896 318.5,114.5C 316.244,116.097 314.91,115.431 314.5,112.5 Z"/></g>
<g><path style="opacity:0.906" fill="#8ab4d3" d="M 180.5,114.5 C 179.817,116.176 178.483,116.843 176.5,116.5C 177.514,115.326 178.847,114.66 180.5,114.5 Z"/></g>
<g><path style="opacity:0.553" fill="#afcede" d="M 176.5,116.5 C 176.027,117.906 175.027,118.573 173.5,118.5C 173.973,117.094 174.973,116.427 176.5,116.5 Z"/></g>
<g><path style="opacity:0.314" fill="#cce5ed" d="M 173.5,118.5 C 172.486,119.674 171.153,120.34 169.5,120.5C 170.287,118.896 171.62,118.229 173.5,118.5 Z"/></g>
<g><path style="opacity:0.859" fill="#86b2d3" d="M 326.5,118.5 C 327.71,118.932 328.71,119.599 329.5,120.5C 327.821,120.715 326.821,120.048 326.5,118.5 Z"/></g>
<g><path style="opacity:0.271" fill="#cae3ea" d="M 169.5,120.5 C 168.198,122.822 166.198,124.155 163.5,124.5C 165.147,122.674 167.147,121.34 169.5,120.5 Z"/></g>
<g><path style="opacity:0.875" fill="#9bbfda" d="M 334.5,123.5 C 336.23,124.026 337.564,125.026 338.5,126.5C 336.368,126.446 335.035,125.446 334.5,123.5 Z"/></g>
<g><path style="opacity:0.749" fill="#9ac2db" d="M 163.5,124.5 C 162.415,126.587 160.749,127.92 158.5,128.5C 159.585,126.413 161.251,125.08 163.5,124.5 Z"/></g>
<g><path style="opacity:0.914" fill="#94bddc" d="M 338.5,126.5 C 340.23,127.026 341.564,128.026 342.5,129.5C 340.368,129.446 339.035,128.446 338.5,126.5 Z"/></g>
<g><path style="opacity:0.827" fill="#84b2d4" d="M 158.5,128.5 C 157.415,130.587 155.749,131.92 153.5,132.5C 154.585,130.413 156.251,129.08 158.5,128.5 Z"/></g>
<g><path style="opacity:0.682" fill="#8ebcd7" d="M 153.5,132.5 C 152.089,134.914 150.089,136.581 147.5,137.5C 148.911,135.086 150.911,133.419 153.5,132.5 Z"/></g>
<g><path style="opacity:0.165" fill="#d5e9f0" d="M 147.5,137.5 C 147.167,138.5 146.5,139.167 145.5,139.5C 145.5,138.167 146.167,137.5 147.5,137.5 Z"/></g>
<g><path style="opacity:0.529" fill="#aaccdd" d="M 352.5,137.5 C 354.262,138.262 355.262,139.596 355.5,141.5C 353.738,140.738 352.738,139.404 352.5,137.5 Z"/></g>
<g><path style="opacity:0.231" fill="#c6e3e9" d="M 145.5,139.5 C 145.167,140.5 144.5,141.167 143.5,141.5C 143.5,140.167 144.167,139.5 145.5,139.5 Z"/></g>
<g><path style="opacity:0.251" fill="#c8e3eb" d="M 143.5,141.5 C 143.167,142.5 142.5,143.167 141.5,143.5C 141.5,142.167 142.167,141.5 143.5,141.5 Z"/></g>
<g><path style="opacity:0.533" fill="#afd2e2" d="M 356.5,141.5 C 358.914,142.911 360.581,144.911 361.5,147.5C 359.086,146.089 357.419,144.089 356.5,141.5 Z"/></g>
<g><path style="opacity:0.243" fill="#c7e3ee" d="M 141.5,143.5 C 141.167,144.5 140.5,145.167 139.5,145.5C 139.5,144.167 140.167,143.5 141.5,143.5 Z"/></g>
<g><path style="opacity:0.016" fill="#d6e6e9" d="M 361.5,147.5 C 362.833,147.5 363.5,148.167 363.5,149.5C 362.5,149.167 361.833,148.5 361.5,147.5 Z"/></g>
<g><path style="opacity:0.998" fill="#1071b4" d="M 139.5,145.5 C 139.586,146.496 139.252,147.329 138.5,148C 140.878,148.974 140.544,149.641 137.5,150C 212.334,150.167 287.001,150.667 361.5,151.5C 285.826,152.164 210.493,151.497 135.5,149.5C 136.5,147.833 137.833,146.5 139.5,145.5 Z"/></g>
<g><path style="opacity:0.218" fill="#c5e4eb" d="M 135.5,149.5 C 210.493,151.497 285.826,152.164 361.5,151.5C 363.993,151.869 364.66,151.203 363.5,149.5C 365.121,149.787 366.121,150.787 366.5,152.5C 366,152.833 365.5,153.167 365,153.5C 287.979,152.516 210.813,152.183 133.5,152.5C 133.285,150.821 133.952,149.821 135.5,149.5 Z"/></g>
<g><path style="opacity:0.392" fill="#cccccc" d="M 142.5,169.5 C 142.414,168.504 142.748,167.671 143.5,167C 135.841,166.5 128.174,166.334 120.5,166.5C 120.369,165.624 120.702,164.957 121.5,164.5C 129.03,165.82 136.53,165.82 144,164.5C 144.877,166.674 144.377,168.341 142.5,169.5 Z"/></g>
<g><path style="opacity:0.384" fill="#dcdcdc" d="M 187.5,234.5 C 187.5,211.833 187.5,189.167 187.5,166.5C 179.826,166.334 172.159,166.5 164.5,167C 163.837,168.518 162.837,169.685 161.5,170.5C 161.834,167.832 163.167,165.832 165.5,164.5C 173.11,165.467 180.777,165.8 188.5,165.5C 188.831,188.673 188.498,211.673 187.5,234.5 Z"/></g>
<g><path style="opacity:0.392" fill="#cccccc" d="M 338.5,175.5 C 336.519,173.035 335.185,170.201 334.5,167C 327.174,166.5 319.841,166.334 312.5,166.5C 312.167,166.5 311.833,166.5 311.5,166.5C 318.704,165.802 326.037,165.136 333.5,164.5C 334.478,164.977 335.311,165.643 336,166.5C 336.849,169.521 337.683,172.521 338.5,175.5 Z"/></g>
<g><path style="opacity:0.392" fill="#cdcdcd" d="M 380.5,168.5 C 379.711,168.217 379.044,167.717 378.5,167C 370.833,166.333 363.167,166.333 355.5,167C 356.252,167.671 356.586,168.504 356.5,169.5C 354.623,168.341 354.123,166.674 355,164.5C 362.667,165.833 370.333,165.833 378,164.5C 379.481,165.471 380.315,166.804 380.5,168.5 Z"/></g>
<g><path style="opacity:0.998" fill="#686868" d="M 120.5,166.5 C 128.174,166.334 135.841,166.5 143.5,167C 142.748,167.671 142.414,168.504 142.5,169.5C 142.068,170.71 141.401,171.71 140.5,172.5C 139.094,172.973 138.427,173.973 138.5,175.5C 137.674,178.485 136.341,181.151 134.5,183.5C 133.326,184.514 132.66,185.847 132.5,187.5C 131.925,190.912 130.592,193.912 128.5,196.5C 127.326,197.514 126.66,198.847 126.5,200.5C 125.262,202.214 124.595,204.214 124.5,206.5C 123.001,212.32 121.334,217.987 119.5,223.5C 118.028,227.919 117.362,232.586 117.5,237.5C 118.791,237.737 119.791,237.404 120.5,236.5C 123.01,236.946 125.01,236.28 126.5,234.5C 127.93,233.463 129.597,232.796 131.5,232.5C 134.89,231.977 138.223,231.143 141.5,230C 142.056,229.617 142.389,229.117 142.5,228.5C 142.833,228.5 143.167,228.5 143.5,228.5C 145.153,228.34 146.486,227.674 147.5,226.5C 151.68,226.218 155.347,224.885 158.5,222.5C 158.833,222.5 159.167,222.5 159.5,222.5C 161.38,222.771 162.713,222.104 163.5,220.5C 164.822,220.67 165.989,220.337 167,219.5C 167.826,208.326 167.659,197.326 166.5,186.5C 162.5,186.5 158.5,186.5 154.5,186.5C 154.5,185.5 154.5,184.5 154.5,183.5C 155.326,180.515 156.659,177.849 158.5,175.5C 159.906,175.027 160.573,174.027 160.5,172.5C 160.328,171.508 160.662,170.842 161.5,170.5C 162.837,169.685 163.837,168.518 164.5,167C 172.159,166.5 179.826,166.334 187.5,166.5C 187.5,189.167 187.5,211.833 187.5,234.5C 183.787,236.435 179.787,237.768 175.5,238.5C 173.847,238.66 172.514,239.326 171.5,240.5C 169.786,241.738 167.786,242.405 165.5,242.5C 162.557,242.98 159.89,243.98 157.5,245.5C 154.327,246.17 151.327,247.336 148.5,249C 150.65,250.411 152.984,251.245 155.5,251.5C 156.93,252.537 158.597,253.204 160.5,253.5C 161.492,253.328 162.158,253.662 162.5,254.5C 165.215,256.072 168.215,257.072 171.5,257.5C 173.89,259.02 176.557,260.02 179.5,260.5C 181.786,260.595 183.786,261.262 185.5,262.5C 187.474,285.604 188.141,308.937 187.5,332.5C 179.833,332.5 172.167,332.5 164.5,332.5C 163.974,330.77 162.974,329.436 161.5,328.5C 160.263,327.035 159.263,325.368 158.5,323.5C 158.34,321.847 157.674,320.514 156.5,319.5C 155.326,318.486 154.66,317.153 154.5,315.5C 154.5,314.5 154.5,313.5 154.5,312.5C 158.833,312.5 163.167,312.5 167.5,312.5C 167.828,300.988 167.495,289.654 166.5,278.5C 165.07,277.463 163.403,276.796 161.5,276.5C 160.01,274.72 158.01,274.054 155.5,274.5C 154.329,273.655 152.995,272.989 151.5,272.5C 149.901,272.768 148.568,272.434 147.5,271.5C 146.448,269.744 144.781,269.077 142.5,269.5C 141.365,267.787 139.698,267.12 137.5,267.5C 137.167,267.5 136.833,267.5 136.5,267.5C 135.365,265.787 133.698,265.12 131.5,265.5C 130.01,263.72 128.01,263.054 125.5,263.5C 124.01,261.72 122.01,261.054 119.5,261.5C 119.44,260.957 119.107,260.624 118.5,260.5C 117.207,262.636 117.207,264.636 118.5,266.5C 119.265,269.096 119.599,271.763 119.5,274.5C 119.171,277.228 119.837,279.562 121.5,281.5C 121.5,281.833 121.5,282.167 121.5,282.5C 121.803,288.077 123.47,293.077 126.5,297.5C 126.402,299.553 127.069,301.22 128.5,302.5C 129.674,303.514 130.34,304.847 130.5,306.5C 130.12,308.698 130.787,310.365 132.5,311.5C 132.66,313.153 133.326,314.486 134.5,315.5C 134.66,317.153 135.326,318.486 136.5,319.5C 136.75,321.674 137.75,323.341 139.5,324.5C 140.338,324.842 140.672,325.508 140.5,326.5C 140.427,328.027 141.094,329.027 142.5,329.5C 143.338,329.842 143.672,330.508 143.5,331.5C 136.018,332.492 128.352,332.825 120.5,332.5C 120.068,331.29 119.401,330.29 118.5,329.5C 118.573,327.973 117.906,326.973 116.5,326.5C 115.4,325.395 114.733,324.062 114.5,322.5C 114.34,320.847 113.674,319.514 112.5,318.5C 112.34,316.847 111.674,315.514 110.5,314.5C 109.326,313.486 108.66,312.153 108.5,310.5C 106.541,303.62 104.208,296.953 101.5,290.5C 101.324,287.273 100.657,284.273 99.5,281.5C 99.2833,277.295 98.6167,273.295 97.5,269.5C 97.7471,266.061 97.4137,262.728 96.5,259.5C 95.3137,248.5 95.647,237.5 97.5,226.5C 98.3438,223.655 99.0104,220.655 99.5,217.5C 99.5,217.167 99.5,216.833 99.5,216.5C 100.768,214.095 101.435,211.428 101.5,208.5C 102.612,206.401 103.279,204.067 103.5,201.5C 103.557,200.391 103.89,199.391 104.5,198.5C 106.213,197.365 106.88,195.698 106.5,193.5C 106.796,191.597 107.463,189.93 108.5,188.5C 109.674,187.486 110.34,186.153 110.5,184.5C 111.674,183.486 112.34,182.153 112.5,180.5C 113.674,179.486 114.34,178.153 114.5,176.5C 114.328,175.508 114.662,174.842 115.5,174.5C 117.25,173.341 118.25,171.674 118.5,169.5C 119.401,168.71 120.068,167.71 120.5,166.5 Z"/></g>
<g><path style="opacity:0.379" fill="#c3c3c3" d="M 297.5,166.5 C 265.833,166.5 234.167,166.5 202.5,166.5C 202.5,221.833 202.5,277.167 202.5,332.5C 209.167,332.5 215.833,332.5 222.5,332.5C 222.5,308.167 222.5,283.833 222.5,259.5C 247.5,259.5 272.5,259.5 297.5,259.5C 273.006,260.498 248.339,260.831 223.5,260.5C 223.667,285.169 223.5,309.836 223,334.5C 215.921,333.52 208.755,333.187 201.5,333.5C 201.333,277.499 201.5,221.499 202,165.5C 202.333,165.167 202.667,164.833 203,164.5C 234.598,165.163 266.098,165.83 297.5,166.5 Z"/></g>
<g><path style="opacity:0.998" fill="#666666" d="M 297.5,166.5 C 297.5,182.167 297.5,197.833 297.5,213.5C 290.313,213.825 283.313,213.491 276.5,212.5C 276.5,203.833 276.5,195.167 276.5,186.5C 258.833,186.5 241.167,186.5 223.5,186.5C 222.503,203.992 222.17,221.659 222.5,239.5C 247.5,239.5 272.5,239.5 297.5,239.5C 297.5,246.167 297.5,252.833 297.5,259.5C 272.5,259.5 247.5,259.5 222.5,259.5C 222.5,283.833 222.5,308.167 222.5,332.5C 215.833,332.5 209.167,332.5 202.5,332.5C 202.5,277.167 202.5,221.833 202.5,166.5C 234.167,166.5 265.833,166.5 297.5,166.5 Z"/></g>
<g><path style="opacity:0.597" fill="#b5b5b5" d="M 311.5,166.5 C 311.833,166.5 312.167,166.5 312.5,166.5C 312.5,221.833 312.5,277.167 312.5,332.5C 311.502,306.005 311.169,279.339 311.5,252.5C 310.227,223.544 310.227,194.878 311.5,166.5 Z"/></g>
<g><path style="opacity:0.999" fill="#676767" d="M 312.5,166.5 C 319.841,166.334 327.174,166.5 334.5,167C 335.185,170.201 336.519,173.035 338.5,175.5C 338.5,175.833 338.5,176.167 338.5,176.5C 338.12,178.698 338.787,180.365 340.5,181.5C 340.12,183.698 340.787,185.365 342.5,186.5C 342.259,188.898 342.926,190.898 344.5,192.5C 344.12,194.698 344.787,196.365 346.5,197.5C 347.735,200.33 348.735,203.33 349.5,206.5C 349.12,208.698 349.787,210.365 351.5,211.5C 351.5,211.833 351.5,212.167 351.5,212.5C 351.12,214.698 351.787,216.365 353.5,217.5C 353.677,221.708 355.01,225.374 357.5,228.5C 358.11,229.391 358.443,230.391 358.5,231.5C 358.402,233.553 359.069,235.22 360.5,236.5C 360.054,239.01 360.72,241.01 362.5,242.5C 362.595,244.786 363.262,246.786 364.5,248.5C 364.402,250.553 365.069,252.22 366.5,253.5C 366.595,255.786 367.262,257.786 368.5,259.5C 368.5,259.833 368.5,260.167 368.5,260.5C 368.796,262.403 369.463,264.07 370.5,265.5C 370.402,267.553 371.069,269.22 372.5,270.5C 372.595,272.786 373.262,274.786 374.5,276.5C 375.022,279.568 375.855,282.568 377,285.5C 378.009,283.975 378.509,282.308 378.5,280.5C 378.5,280.167 378.5,279.833 378.5,279.5C 379.785,276.411 380.451,273.078 380.5,269.5C 380.366,267.708 380.699,266.042 381.5,264.5C 382.793,254.705 382.793,245.038 381.5,235.5C 381.107,227.116 379.441,219.116 376.5,211.5C 376.741,209.102 376.074,207.102 374.5,205.5C 374.405,203.214 373.738,201.214 372.5,199.5C 372.34,197.847 371.674,196.514 370.5,195.5C 370.34,193.847 369.674,192.514 368.5,191.5C 368.34,189.847 367.674,188.514 366.5,187.5C 366.34,185.847 365.674,184.514 364.5,183.5C 363.326,182.486 362.66,181.153 362.5,179.5C 362.34,177.847 361.674,176.514 360.5,175.5C 360.262,173.596 359.262,172.262 357.5,171.5C 357.167,170.833 356.833,170.167 356.5,169.5C 356.586,168.504 356.252,167.671 355.5,167C 363.167,166.333 370.833,166.333 378.5,167C 379.044,167.717 379.711,168.217 380.5,168.5C 380.66,170.153 381.326,171.486 382.5,172.5C 383.584,175.004 384.917,177.337 386.5,179.5C 386.66,181.153 387.326,182.486 388.5,183.5C 388.66,185.153 389.326,186.486 390.5,187.5C 390.935,190.157 391.935,192.491 393.5,194.5C 393.054,197.01 393.72,199.01 395.5,200.5C 396.924,202.515 397.59,204.848 397.5,207.5C 397.565,210.428 398.232,213.095 399.5,215.5C 401.082,218.876 401.749,222.542 401.5,226.5C 402.285,238.817 402.618,251.15 402.5,263.5C 402.81,266.713 402.477,269.713 401.5,272.5C 400.313,275.946 399.646,279.613 399.5,283.5C 399.122,287.678 398.122,291.678 396.5,295.5C 395.662,295.842 395.328,296.508 395.5,297.5C 395.072,300.785 394.072,303.785 392.5,306.5C 391.069,307.78 390.402,309.447 390.5,311.5C 389.599,312.29 388.932,313.29 388.5,314.5C 388.5,314.833 388.5,315.167 388.5,315.5C 387.326,316.514 386.66,317.847 386.5,319.5C 385.326,320.514 384.66,321.847 384.5,323.5C 383.094,323.973 382.427,324.973 382.5,326.5C 382.267,328.062 381.6,329.395 380.5,330.5C 378.18,332.226 375.513,332.893 372.5,332.5C 372.598,330.447 371.931,328.78 370.5,327.5C 370.5,327.167 370.5,326.833 370.5,326.5C 369.679,322.873 368.346,319.54 366.5,316.5C 366.598,314.447 365.931,312.78 364.5,311.5C 364.405,309.214 363.738,307.214 362.5,305.5C 361.262,303.786 360.595,301.786 360.5,299.5C 360.598,297.447 359.931,295.78 358.5,294.5C 357.596,293.791 357.263,292.791 357.5,291.5C 356.602,286.466 354.935,281.799 352.5,277.5C 351.596,276.791 351.263,275.791 351.5,274.5C 351.405,272.214 350.738,270.214 349.5,268.5C 349.405,266.214 348.738,264.214 347.5,262.5C 347.204,260.597 346.537,258.93 345.5,257.5C 345.405,255.214 344.738,253.214 343.5,251.5C 343.405,249.214 342.738,247.214 341.5,245.5C 341.204,243.597 340.537,241.93 339.5,240.5C 339.598,238.447 338.931,236.78 337.5,235.5C 336.89,234.609 336.557,233.609 336.5,232.5C 336.072,229.215 335.072,226.215 333.5,223.5C 333.688,221.897 333.188,220.563 332,219.5C 331.5,257.165 331.333,294.832 331.5,332.5C 325.167,332.5 318.833,332.5 312.5,332.5C 312.5,277.167 312.5,221.833 312.5,166.5 Z"/></g>
<g><path style="opacity:0.031" fill="#efefef" d="M 120.5,166.5 C 120.068,167.71 119.401,168.71 118.5,169.5C 118.285,167.821 118.952,166.821 120.5,166.5 Z"/></g>
<g><path style="opacity:0.014" fill="#ededed" d="M 380.5,168.5 C 382.104,169.287 382.771,170.62 382.5,172.5C 381.326,171.486 380.66,170.153 380.5,168.5 Z"/></g>
<g><path style="opacity:0.055" fill="#e6e6e6" d="M 118.5,169.5 C 118.25,171.674 117.25,173.341 115.5,174.5C 115.75,172.326 116.75,170.659 118.5,169.5 Z"/></g>
<g><path style="opacity:0.02" fill="#e7e7e7" d="M 140.5,172.5 C 140.573,174.027 139.906,175.027 138.5,175.5C 138.427,173.973 139.094,172.973 140.5,172.5 Z"/></g>
<g><path style="opacity:0.031" fill="#eaeaea" d="M 357.5,171.5 C 359.262,172.262 360.262,173.596 360.5,175.5C 358.738,174.738 357.738,173.404 357.5,171.5 Z"/></g>
<g><path style="opacity:0.082" fill="#e8e8e8" d="M 160.5,172.5 C 160.573,174.027 159.906,175.027 158.5,175.5C 158.427,173.973 159.094,172.973 160.5,172.5 Z"/></g>
<g><path style="opacity:0.129" fill="#ececec" d="M 382.5,172.5 C 385.083,173.985 386.416,176.318 386.5,179.5C 384.917,177.337 383.584,175.004 382.5,172.5 Z"/></g>
<g><path style="opacity:0.027" fill="#e8e8e8" d="M 360.5,175.5 C 361.674,176.514 362.34,177.847 362.5,179.5C 360.896,178.713 360.229,177.38 360.5,175.5 Z"/></g>
<g><path style="opacity:0.059" fill="#dcdcdc" d="M 114.5,176.5 C 114.34,178.153 113.674,179.486 112.5,180.5C 112.229,178.62 112.896,177.287 114.5,176.5 Z"/></g>
<g><path style="opacity:0.871" fill="#b8b8b8" d="M 338.5,176.5 C 339.931,177.78 340.598,179.447 340.5,181.5C 338.787,180.365 338.12,178.698 338.5,176.5 Z"/></g>
<g><path style="opacity:0.01" fill="#e5e5e5" d="M 112.5,180.5 C 112.34,182.153 111.674,183.486 110.5,184.5C 110.157,182.517 110.824,181.183 112.5,180.5 Z"/></g>
<g><path style="opacity:0.039" fill="#e6e6e6" d="M 386.5,179.5 C 388.104,180.287 388.771,181.62 388.5,183.5C 387.326,182.486 386.66,181.153 386.5,179.5 Z"/></g>
<g><path style="opacity:0.882" fill="#b4b4b4" d="M 340.5,181.5 C 341.931,182.78 342.598,184.447 342.5,186.5C 340.787,185.365 340.12,183.698 340.5,181.5 Z"/></g>
<g><path style="opacity:0.012" fill="#efefef" d="M 364.5,183.5 C 365.674,184.514 366.34,185.847 366.5,187.5C 364.896,186.713 364.229,185.38 364.5,183.5 Z"/></g>
<g><path style="opacity:0.014" fill="#f0f0f0" d="M 388.5,183.5 C 390.104,184.287 390.771,185.62 390.5,187.5C 389.326,186.486 388.66,185.153 388.5,183.5 Z"/></g>
<g><path style="opacity:0.275" fill="#e6e6e6" d="M 110.5,184.5 C 110.34,186.153 109.674,187.486 108.5,188.5C 108.229,186.62 108.896,185.287 110.5,184.5 Z"/></g>
<g><path style="opacity:0.016" fill="#efefef" d="M 134.5,183.5 C 134.771,185.38 134.104,186.713 132.5,187.5C 132.66,185.847 133.326,184.514 134.5,183.5 Z"/></g>
<g><path style="opacity:0.091" fill="#e9e9e9" d="M 154.5,183.5 C 154.5,184.5 154.5,185.5 154.5,186.5C 158.5,186.5 162.5,186.5 166.5,186.5C 166.5,186.833 166.5,187.167 166.5,187.5C 162.154,187.666 157.821,187.499 153.5,187C 152.713,185.687 153.046,184.52 154.5,183.5 Z"/></g>
<g><path style="opacity:0.09" fill="#f2f2f2" d="M 223.5,187.5 C 223.5,187.167 223.5,186.833 223.5,186.5C 241.167,186.5 258.833,186.5 276.5,186.5C 276.5,195.167 276.5,203.833 276.5,212.5C 275.507,204.35 275.174,196.017 275.5,187.5C 258.167,187.5 240.833,187.5 223.5,187.5 Z"/></g>
<g><path style="opacity:0.464" fill="#b8b8b8" d="M 166.5,186.5 C 167.659,197.326 167.826,208.326 167,219.5C 165.989,220.337 164.822,220.67 163.5,220.5C 164.122,219.373 164.955,218.373 166,217.5C 166.5,207.506 166.666,197.506 166.5,187.5C 166.5,187.167 166.5,186.833 166.5,186.5 Z"/></g>
<g><path style="opacity:0.018" fill="#f2f2f2" d="M 366.5,187.5 C 367.674,188.514 368.34,189.847 368.5,191.5C 366.896,190.713 366.229,189.38 366.5,187.5 Z"/></g>
<g><path style="opacity:0.714" fill="#c6c6c6" d="M 342.5,186.5 C 343.738,188.214 344.405,190.214 344.5,192.5C 342.926,190.898 342.259,188.898 342.5,186.5 Z"/></g>
<g><path style="opacity:0.014" fill="#ececec" d="M 390.5,187.5 C 392.448,189.32 393.448,191.654 393.5,194.5C 391.935,192.491 390.935,190.157 390.5,187.5 Z"/></g>
<g><path style="opacity:0.012" fill="#eeeeee" d="M 368.5,191.5 C 369.674,192.514 370.34,193.847 370.5,195.5C 368.896,194.713 368.229,193.38 368.5,191.5 Z"/></g>
<g><path style="opacity:0.757" fill="#c7c7c7" d="M 344.5,192.5 C 345.931,193.78 346.598,195.447 346.5,197.5C 344.787,196.365 344.12,194.698 344.5,192.5 Z"/></g>
<g><path style="opacity:0.824" fill="#bdbdbd" d="M 106.5,193.5 C 106.88,195.698 106.213,197.365 104.5,198.5C 104.402,196.447 105.069,194.78 106.5,193.5 Z"/></g>
<g><path style="opacity:0.016" fill="#eaeaea" d="M 370.5,195.5 C 371.674,196.514 372.34,197.847 372.5,199.5C 370.896,198.713 370.229,197.38 370.5,195.5 Z"/></g>
<g><path style="opacity:0.018" fill="#ececec" d="M 128.5,196.5 C 128.771,198.38 128.104,199.713 126.5,200.5C 126.66,198.847 127.326,197.514 128.5,196.5 Z"/></g>
<g><path style="opacity:0.878" fill="#b2b2b2" d="M 393.5,194.5 C 394.458,196.302 395.125,198.302 395.5,200.5C 393.72,199.01 393.054,197.01 393.5,194.5 Z"/></g>
<g><path style="opacity:0.014" fill="#ebebeb" d="M 126.5,200.5 C 126.741,202.898 126.074,204.898 124.5,206.5C 124.595,204.214 125.262,202.214 126.5,200.5 Z"/></g>
<g><path style="opacity:0.024" fill="#ededed" d="M 372.5,199.5 C 373.738,201.214 374.405,203.214 374.5,205.5C 372.692,204.082 372.025,202.082 372.5,199.5 Z"/></g>
<g><path style="opacity:0.01" fill="#e6e6e6" d="M 103.5,201.5 C 103.279,204.067 102.612,206.401 101.5,208.5C 101.171,205.772 101.837,203.438 103.5,201.5 Z"/></g>
<g><path style="opacity:0.361" fill="#d3d3d3" d="M 374.5,205.5 C 376.074,207.102 376.741,209.102 376.5,211.5C 375.262,209.786 374.595,207.786 374.5,205.5 Z"/></g>
<g><path style="opacity:0.745" fill="#c0c0c0" d="M 349.5,206.5 C 350.537,207.93 351.204,209.597 351.5,211.5C 349.787,210.365 349.12,208.698 349.5,206.5 Z"/></g>
<g><path style="opacity:0.729" fill="#b9b9b9" d="M 397.5,207.5 C 399.04,209.838 399.706,212.505 399.5,215.5C 398.232,213.095 397.565,210.428 397.5,207.5 Z"/></g>
<g><path style="opacity:0.596" fill="#cecece" d="M 101.5,208.5 C 101.435,211.428 100.768,214.095 99.5,216.5C 99.1107,213.447 99.7773,210.78 101.5,208.5 Z"/></g>
<g><path style="opacity:0.796" fill="#bfbfbf" d="M 351.5,212.5 C 352.931,213.78 353.598,215.447 353.5,217.5C 351.787,216.365 351.12,214.698 351.5,212.5 Z"/></g>
<g><path style="opacity:0.009" fill="#f0f0f0" d="M 99.5,217.5 C 99.0104,220.655 98.3438,223.655 97.5,226.5C 97.3359,223.813 97.5026,221.146 98,218.5C 98.3826,217.944 98.8826,217.611 99.5,217.5 Z"/></g>
<g><path style="opacity:0.834" fill="#797979" d="M 333.5,223.5 C 332.833,223.5 332.5,223.833 332.5,224.5C 332.5,225.167 332.5,225.833 332.5,226.5C 332.5,261.833 332.5,297.167 332.5,332.5C 332.167,332.5 331.833,332.5 331.5,332.5C 331.333,294.832 331.5,257.165 332,219.5C 333.188,220.563 333.688,221.897 333.5,223.5 Z"/></g>
<g><path style="opacity:0.78" fill="#c7c7c7" d="M 353.5,217.5 C 355.223,221.001 356.557,224.668 357.5,228.5C 355.01,225.374 353.677,221.708 353.5,217.5 Z"/></g>
<g><path style="opacity:0.741" fill="#bfbfbf" d="M 163.5,220.5 C 162.713,222.104 161.38,222.771 159.5,222.5C 159.369,221.761 159.536,221.094 160,220.5C 160.986,221.171 162.153,221.171 163.5,220.5 Z"/></g>
<g><path style="opacity:0.005" fill="#e9e9e9" d="M 376.5,211.5 C 379.441,219.116 381.107,227.116 381.5,235.5C 379.63,227.639 377.964,219.639 376.5,211.5 Z"/></g>
<g><path style="opacity:0.867" fill="#c0c0c0" d="M 158.5,222.5 C 155.347,224.885 151.68,226.218 147.5,226.5C 150.915,224.721 154.581,223.387 158.5,222.5 Z"/></g>
<g><path style="opacity:0.012" fill="#f2f2f2" d="M 333.5,223.5 C 335.072,226.215 336.072,229.215 336.5,232.5C 334.621,232.607 334.288,232.107 335.5,231C 334.601,229.348 333.601,227.848 332.5,226.5C 332.5,225.833 332.5,225.167 332.5,224.5C 333.167,224.5 333.5,224.167 333.5,223.5 Z"/></g>
<g><path style="opacity:0.204" fill="#d3d3d3" d="M 119.5,223.5 C 119.543,226.867 119.21,230.201 118.5,233.5C 118.64,235.03 119.307,236.03 120.5,236.5C 119.791,237.404 118.791,237.737 117.5,237.5C 117.362,232.586 118.028,227.919 119.5,223.5 Z"/></g>
<g><path style="opacity:0.341" fill="#e0e0e0" d="M 147.5,226.5 C 146.486,227.674 145.153,228.34 143.5,228.5C 144.287,226.896 145.62,226.229 147.5,226.5 Z"/></g>
<g><path style="opacity:0.063" fill="#d7d7d7" d="M 142.5,228.5 C 142.389,229.117 142.056,229.617 141.5,230C 138.223,231.143 134.89,231.977 131.5,232.5C 134.801,230.416 138.468,229.082 142.5,228.5 Z"/></g>
<g><path style="opacity:0.006" fill="#f2f2f2" d="M 358.5,231.5 C 359.931,232.78 360.598,234.447 360.5,236.5C 359.069,235.22 358.402,233.553 358.5,231.5 Z"/></g>
<g><path style="opacity:0.886" fill="#b2b2b2" d="M 126.5,234.5 C 125.01,236.28 123.01,236.946 120.5,236.5C 122.302,235.542 124.302,234.875 126.5,234.5 Z"/></g>
<g><path style="opacity:0.418" fill="#bebebe" d="M 223.5,186.5 C 223.5,186.833 223.5,187.167 223.5,187.5C 223.175,204.411 223.508,221.244 224.5,238C 249.003,238.168 273.337,238.668 297.5,239.5C 272.5,239.5 247.5,239.5 222.5,239.5C 222.17,221.659 222.503,203.992 223.5,186.5 Z"/></g>
<g><path style="opacity:0.259" fill="#d9d9d9" d="M 337.5,235.5 C 338.931,236.78 339.598,238.447 339.5,240.5C 338.069,239.22 337.402,237.553 337.5,235.5 Z"/></g>
<g><path style="opacity:0.02" fill="#ededed" d="M 175.5,238.5 C 174.713,240.104 173.38,240.771 171.5,240.5C 172.514,239.326 173.847,238.66 175.5,238.5 Z"/></g>
<g><path style="opacity:0.82" fill="#bcbcbc" d="M 360.5,236.5 C 361.458,238.302 362.125,240.302 362.5,242.5C 360.72,241.01 360.054,239.01 360.5,236.5 Z"/></g>
<g><path style="opacity:0.01" fill="#ededed" d="M 339.5,240.5 C 340.537,241.93 341.204,243.597 341.5,245.5C 339.787,244.365 339.12,242.698 339.5,240.5 Z"/></g>
<g><path style="opacity:0.471" fill="#bbbbbb" d="M 401.5,226.5 C 402.983,233.777 403.65,241.277 403.5,249C 403.499,254.012 403.166,258.845 402.5,263.5C 402.618,251.15 402.285,238.817 401.5,226.5 Z"/></g>
<g><path style="opacity:0.012" fill="#eaeaea" d="M 165.5,242.5 C 163.316,244.585 160.649,245.585 157.5,245.5C 159.89,243.98 162.557,242.98 165.5,242.5 Z"/></g>
<g><path style="opacity:0.009" fill="#f3f3f3" d="M 362.5,242.5 C 364.074,244.102 364.741,246.102 364.5,248.5C 363.262,246.786 362.595,244.786 362.5,242.5 Z"/></g>
<g><path style="opacity:0.011" fill="#e8e8e8" d="M 157.5,245.5 C 156.665,246.943 155.332,247.943 153.5,248.5C 154.193,249.518 154.859,250.518 155.5,251.5C 152.984,251.245 150.65,250.411 148.5,249C 151.327,247.336 154.327,246.17 157.5,245.5 Z"/></g>
<g><path style="opacity:0.016" fill="#dddddd" d="M 341.5,245.5 C 342.738,247.214 343.405,249.214 343.5,251.5C 341.72,250.01 341.054,248.01 341.5,245.5 Z"/></g>
<g><path style="opacity:0.016" fill="#efefef" d="M 364.5,248.5 C 365.931,249.78 366.598,251.447 366.5,253.5C 365.069,252.22 364.402,250.553 364.5,248.5 Z"/></g>
<g><path style="opacity:0.052" fill="#e2e2e2" d="M 381.5,235.5 C 382.793,245.038 382.793,254.705 381.5,264.5C 381.407,254.901 381.407,245.234 381.5,235.5 Z"/></g>
<g><path style="opacity:0.02" fill="#eeeeee" d="M 155.5,251.5 C 157.698,251.12 159.365,251.787 160.5,253.5C 158.597,253.204 156.93,252.537 155.5,251.5 Z"/></g>
<g><path style="opacity:0.007" fill="#f5f5f5" d="M 311.5,252.5 C 311.169,279.339 311.502,306.005 312.5,332.5C 318.833,332.5 325.167,332.5 331.5,332.5C 331.833,332.5 332.167,332.5 332.5,332.5C 325.923,333.499 318.59,333.833 310.5,333.5C 310.169,306.328 310.502,279.328 311.5,252.5 Z"/></g>
<g><path style="opacity:0.013" fill="#e9e9e9" d="M 171.5,257.5 C 168.215,257.072 165.215,256.072 162.5,254.5C 163.15,254.196 163.817,253.863 164.5,253.5C 166.904,254.843 169.238,256.177 171.5,257.5 Z"/></g>
<g><path style="opacity:0.012" fill="#e2e2e2" d="M 343.5,251.5 C 344.738,253.214 345.405,255.214 345.5,257.5C 343.72,256.01 343.054,254.01 343.5,251.5 Z"/></g>
<g><path style="opacity:0.006" fill="#f2f2f2" d="M 366.5,253.5 C 368.074,255.102 368.741,257.102 368.5,259.5C 367.262,257.786 366.595,255.786 366.5,253.5 Z"/></g>
<g><path style="opacity:0.006" fill="#eaeaea" d="M 171.5,257.5 C 174.649,257.415 177.316,258.415 179.5,260.5C 176.557,260.02 173.89,259.02 171.5,257.5 Z"/></g>
<g><path style="opacity:0.012" fill="#efefef" d="M 345.5,257.5 C 346.537,258.93 347.204,260.597 347.5,262.5C 345.787,261.365 345.12,259.698 345.5,257.5 Z"/></g>
<g><path style="opacity:0.584" fill="#c9c9c9" d="M 96.5,259.5 C 97.4137,262.728 97.7471,266.061 97.5,269.5C 96.7021,266.829 96.0354,263.996 95.5,261C 95.5699,260.235 95.9033,259.735 96.5,259.5 Z"/></g>
<g><path style="opacity:0.012" fill="#e7e7e7" d="M 119.5,261.5 C 118.549,262.919 118.216,264.585 118.5,266.5C 117.207,264.636 117.207,262.636 118.5,260.5C 119.107,260.624 119.44,260.957 119.5,261.5 Z"/></g>
<g><path style="opacity:0.851" fill="#bebebe" d="M 119.5,261.5 C 122.01,261.054 124.01,261.72 125.5,263.5C 123.214,263.405 121.214,262.738 119.5,261.5 Z"/></g>
<g><path style="opacity:0.008" fill="#ebebeb" d="M 368.5,260.5 C 370.213,261.635 370.88,263.302 370.5,265.5C 369.463,264.07 368.796,262.403 368.5,260.5 Z"/></g>
<g><path style="opacity:0.875" fill="#bababa" d="M 125.5,263.5 C 128.01,263.054 130.01,263.72 131.5,265.5C 129.214,265.405 127.214,264.738 125.5,263.5 Z"/></g>
<g><path style="opacity:0.027" fill="#f1f1f1" d="M 185.5,262.5 C 186.5,262.5 187.5,262.5 188.5,262.5C 188.667,286.169 188.5,309.836 188,333.5C 187.439,334.022 186.772,334.355 186,334.5C 178.69,333.882 171.524,333.215 164.5,332.5C 172.167,332.5 179.833,332.5 187.5,332.5C 188.141,308.937 187.474,285.604 185.5,262.5 Z"/></g>
<g><path style="opacity:0.796" fill="#bcbcbc" d="M 131.5,265.5 C 133.698,265.12 135.365,265.787 136.5,267.5C 136.565,267.938 136.399,268.272 136,268.5C 134.591,267.219 133.091,266.219 131.5,265.5 Z"/></g>
<g><path style="opacity:0.008" fill="#dfdfdf" d="M 347.5,262.5 C 348.738,264.214 349.405,266.214 349.5,268.5C 347.926,266.898 347.259,264.898 347.5,262.5 Z"/></g>
<g><path style="opacity:0.018" fill="#ececec" d="M 370.5,265.5 C 372.213,266.635 372.88,268.302 372.5,270.5C 371.069,269.22 370.402,267.553 370.5,265.5 Z"/></g>
<g><path style="opacity:0.824" fill="#bbbbbb" d="M 137.5,267.5 C 139.698,267.12 141.365,267.787 142.5,269.5C 140.447,269.598 138.78,268.931 137.5,267.5 Z"/></g>
<g><path style="opacity:0.925" fill="#b2b2b2" d="M 142.5,269.5 C 144.781,269.077 146.448,269.744 147.5,271.5C 145.597,271.204 143.93,270.537 142.5,269.5 Z"/></g>
<g><path style="opacity:0.01" fill="#f0f0f0" d="M 372.5,270.5 C 374.308,271.918 374.975,273.918 374.5,276.5C 373.262,274.786 372.595,272.786 372.5,270.5 Z"/></g>
<g><path style="opacity:0.016" fill="#e1e1e1" d="M 349.5,268.5 C 350.738,270.214 351.405,272.214 351.5,274.5C 349.926,272.898 349.259,270.898 349.5,268.5 Z"/></g>
<g><path style="opacity:0.01" fill="#f2f2f2" d="M 151.5,272.5 C 152.995,272.989 154.329,273.655 155.5,274.5C 153.517,274.843 152.183,274.176 151.5,272.5 Z"/></g>
<g><path style="opacity:0.006" fill="#f7f7f7" d="M 380.5,269.5 C 380.451,273.078 379.785,276.411 378.5,279.5C 378.737,276.788 378.737,274.288 378.5,272C 379.066,271.005 379.733,270.172 380.5,269.5 Z"/></g>
<g><path style="opacity:0.902" fill="#b7b7b7" d="M 155.5,274.5 C 158.01,274.054 160.01,274.72 161.5,276.5C 159.214,276.405 157.214,275.738 155.5,274.5 Z"/></g>
<g><path style="opacity:0.009" fill="#dfdfdf" d="M 97.5,269.5 C 98.6167,273.295 99.2833,277.295 99.5,281.5C 98.8826,281.389 98.3826,281.056 98,280.5C 97.5014,276.848 97.3347,273.182 97.5,269.5 Z"/></g>
<g><path style="opacity:0.239" fill="#cecece" d="M 401.5,272.5 C 401.296,275.545 401.296,278.379 401.5,281C 400.934,281.995 400.267,282.828 399.5,283.5C 399.646,279.613 400.313,275.946 401.5,272.5 Z"/></g>
<g><path style="opacity:0.014" fill="#f3f3f3" d="M 161.5,276.5 C 163.403,276.796 165.07,277.463 166.5,278.5C 164.302,278.88 162.635,278.213 161.5,276.5 Z"/></g>
<g><path style="opacity:0.557" fill="#d3d3d3" d="M 119.5,274.5 C 120.612,276.599 121.279,278.933 121.5,281.5C 119.837,279.562 119.171,277.228 119.5,274.5 Z"/></g>
<g><path style="opacity:0.255" fill="#dedede" d="M 352.5,277.5 C 354.935,281.799 356.602,286.466 357.5,291.5C 354.776,287.351 353.109,282.684 352.5,277.5 Z"/></g>
<g><path style="opacity:0.014" fill="#eeeeee" d="M 374.5,276.5 C 375.833,277.833 377.167,279.167 378.5,280.5C 378.509,282.308 378.009,283.975 377,285.5C 375.855,282.568 375.022,279.568 374.5,276.5 Z"/></g>
<g><path style="opacity:0.106" fill="#d9d9d9" d="M 99.5,281.5 C 100.657,284.273 101.324,287.273 101.5,290.5C 99.8819,287.829 99.2153,284.829 99.5,281.5 Z"/></g>
<g><path style="opacity:0.725" fill="#bbbbbb" d="M 121.5,282.5 C 123.613,287.255 125.279,292.255 126.5,297.5C 123.47,293.077 121.803,288.077 121.5,282.5 Z"/></g>
<g><path style="opacity:0.006" fill="#e4e4e4" d="M 101.5,290.5 C 104.208,296.953 106.541,303.62 108.5,310.5C 104.992,304.312 102.658,297.645 101.5,290.5 Z"/></g>
<g><path style="opacity:0.029" fill="#ebebeb" d="M 396.5,295.5 C 398.031,296.925 397.698,297.591 395.5,297.5C 395.328,296.508 395.662,295.842 396.5,295.5 Z"/></g>
<g><path style="opacity:0.235" fill="#dbdbdb" d="M 358.5,294.5 C 359.931,295.78 360.598,297.447 360.5,299.5C 359.069,298.22 358.402,296.553 358.5,294.5 Z"/></g>
<g><path style="opacity:0.014" fill="#ededed" d="M 126.5,297.5 C 127.931,298.78 128.598,300.447 128.5,302.5C 127.069,301.22 126.402,299.553 126.5,297.5 Z"/></g>
<g><path style="opacity:0.014" fill="#e8e8e8" d="M 362.5,305.5 C 363.738,307.214 364.405,309.214 364.5,311.5C 362.926,309.898 362.259,307.898 362.5,305.5 Z"/></g>
<g><path style="opacity:0.886" fill="#b5b5b5" d="M 130.5,306.5 C 131.931,307.78 132.598,309.447 132.5,311.5C 130.787,310.365 130.12,308.698 130.5,306.5 Z"/></g>
<g><path style="opacity:0.188" fill="#dedede" d="M 392.5,306.5 C 392.598,308.553 391.931,310.22 390.5,311.5C 390.402,309.447 391.069,307.78 392.5,306.5 Z"/></g>
<g><path style="opacity:0.219" fill="#cccccc" d="M 166.5,278.5 C 167.495,289.654 167.828,300.988 167.5,312.5C 163.167,312.5 158.833,312.5 154.5,312.5C 154.5,313.5 154.5,314.5 154.5,315.5C 153.609,314.739 152.942,313.739 152.5,312.5C 157.12,311.507 161.786,311.173 166.5,311.5C 166.5,300.5 166.5,289.5 166.5,278.5 Z"/></g>
<g><path style="opacity:0.012" fill="#ececec" d="M 364.5,311.5 C 365.931,312.78 366.598,314.447 366.5,316.5C 364.787,315.365 364.12,313.698 364.5,311.5 Z"/></g>
<g><path style="opacity:0.012" fill="#f3f3f3" d="M 390.5,311.5 C 390.715,313.179 390.048,314.179 388.5,314.5C 388.932,313.29 389.599,312.29 390.5,311.5 Z"/></g>
<g><path style="opacity:0.031" fill="#e8e8e8" d="M 132.5,311.5 C 134.104,312.287 134.771,313.62 134.5,315.5C 133.326,314.486 132.66,313.153 132.5,311.5 Z"/></g>
<g><path style="opacity:0.031" fill="#e6e6e6" d="M 110.5,314.5 C 111.674,315.514 112.34,316.847 112.5,318.5C 110.896,317.713 110.229,316.38 110.5,314.5 Z"/></g>
<g><path style="opacity:0.047" fill="#e2e2e2" d="M 134.5,315.5 C 136.104,316.287 136.771,317.62 136.5,319.5C 135.326,318.486 134.66,317.153 134.5,315.5 Z"/></g>
<g><path style="opacity:0.02" fill="#eeeeee" d="M 388.5,315.5 C 388.771,317.38 388.104,318.713 386.5,319.5C 386.66,317.847 387.326,316.514 388.5,315.5 Z"/></g>
<g><path style="opacity:0.027" fill="#e5e5e5" d="M 112.5,318.5 C 113.674,319.514 114.34,320.847 114.5,322.5C 112.896,321.713 112.229,320.38 112.5,318.5 Z"/></g>
<g><path style="opacity:0.016" fill="#e7e7e7" d="M 366.5,316.5 C 368.346,319.54 369.679,322.873 370.5,326.5C 368.142,323.757 366.809,320.423 366.5,316.5 Z"/></g>
<g><path style="opacity:0.012" fill="#f0f0f0" d="M 156.5,319.5 C 157.674,320.514 158.34,321.847 158.5,323.5C 156.896,322.713 156.229,321.38 156.5,319.5 Z"/></g>
<g><path style="opacity:0.047" fill="#e6e6e6" d="M 136.5,319.5 C 138.25,320.659 139.25,322.326 139.5,324.5C 137.75,323.341 136.75,321.674 136.5,319.5 Z"/></g>
<g><path style="opacity:0.02" fill="#eeeeee" d="M 386.5,319.5 C 386.771,321.38 386.104,322.713 384.5,323.5C 384.66,321.847 385.326,320.514 386.5,319.5 Z"/></g>
<g><path style="opacity:0.013" fill="#efefef" d="M 384.5,323.5 C 384.715,325.179 384.048,326.179 382.5,326.5C 382.427,324.973 383.094,323.973 384.5,323.5 Z"/></g>
<g><path style="opacity:0.027" fill="#f0f0f0" d="M 116.5,326.5 C 117.906,326.973 118.573,327.973 118.5,329.5C 117.094,329.027 116.427,328.027 116.5,326.5 Z"/></g>
<g><path style="opacity:0.106" fill="#e1e1e1" d="M 140.5,326.5 C 141.906,326.973 142.573,327.973 142.5,329.5C 141.094,329.027 140.427,328.027 140.5,326.5 Z"/></g>
<g><path style="opacity:0.014" fill="#f0f0f0" d="M 370.5,327.5 C 371.931,328.78 372.598,330.447 372.5,332.5C 370.744,331.448 370.077,329.781 370.5,327.5 Z"/></g>
<g><path style="opacity:0.006" fill="#f4f4f4" d="M 118.5,329.5 C 119.401,330.29 120.068,331.29 120.5,332.5C 118.952,332.179 118.285,331.179 118.5,329.5 Z"/></g>
<g><path style="opacity:0.02" fill="#ececec" d="M 161.5,328.5 C 162.974,329.436 163.974,330.77 164.5,332.5C 162.554,331.965 161.554,330.632 161.5,328.5 Z"/></g>
<g><path style="opacity:0.271" fill="#dddddd" d="M 143.5,331.5 C 144.043,331.56 144.376,331.893 144.5,332.5C 143.135,333.456 141.635,334.122 140,334.5C 133.358,334.707 126.858,334.04 120.5,332.5C 128.352,332.825 136.018,332.492 143.5,331.5 Z"/></g>
<g><path style="opacity:0.269" fill="#e4e4e4" d="M 380.5,330.5 C 380.288,332.384 379.288,333.717 377.5,334.5C 376.28,333.289 375.113,333.289 374,334.5C 373.283,333.956 372.783,333.289 372.5,332.5C 375.513,332.893 378.18,332.226 380.5,330.5 Z"/></g>
<g><path style="opacity:0.008" fill="#f3f8f3" d="M 362.5,346.5 C 363.568,345.566 364.901,345.232 366.5,345.5C 366.817,348.546 365.484,350.213 362.5,350.5C 363.167,349.5 363.833,348.5 364.5,347.5C 364.158,346.662 363.492,346.328 362.5,346.5 Z"/></g>
<g><path style="opacity:0.396" fill="#b0d1df" d="M 362.5,346.5 C 363.492,346.328 364.158,346.662 364.5,347.5C 287.998,347.167 211.665,347.501 135.5,348.5C 134.243,347.377 134.576,346.711 136.5,346.5C 211.727,345.26 287.06,345.26 362.5,346.5 Z"/></g>
<g><path style="opacity:1" fill="#0d73ba" d="M 364.5,347.5 C 363.833,348.5 363.167,349.5 362.5,350.5C 362.5,351.167 362.167,351.5 361.5,351.5C 361.167,351.5 360.833,351.5 360.5,351.5C 360.082,350.778 359.416,350.278 358.5,350C 285.831,349.167 213.164,349.333 140.5,350.5C 141.309,352.071 141.643,353.738 141.5,355.5C 140.5,355.167 139.833,354.5 139.5,353.5C 139.167,352.5 138.5,351.833 137.5,351.5C 136.5,351.167 135.833,350.5 135.5,349.5C 135.5,349.167 135.5,348.833 135.5,348.5C 211.665,347.501 287.998,347.167 364.5,347.5 Z"/></g>
<g><path style="opacity:0.067" fill="#f3f9f6" d="M 136.5,346.5 C 134.576,346.711 134.243,347.377 135.5,348.5C 135.5,348.833 135.5,349.167 135.5,349.5C 133.088,349.306 132.088,347.973 132.5,345.5C 134.099,345.232 135.432,345.566 136.5,346.5 Z"/></g>
<g><path style="opacity:1" fill="#0571bd" d="M 360.5,351.5 C 357.5,354.833 354.5,358.167 351.5,361.5C 350.5,361.833 349.833,362.5 349.5,363.5C 348.5,364.167 347.5,364.833 346.5,365.5C 343.248,365.81 341.248,367.476 340.5,370.5C 339.415,372.587 337.749,373.92 335.5,374.5C 333.973,374.427 332.973,375.094 332.5,376.5C 331.71,377.401 330.71,378.068 329.5,378.5C 327.847,378.66 326.514,379.326 325.5,380.5C 322.163,378.646 321.163,379.313 322.5,382.5C 320.847,382.66 319.514,383.326 318.5,384.5C 316.847,384.66 315.514,385.326 314.5,386.5C 311.744,388.204 308.744,389.537 305.5,390.5C 301.216,391.261 297.216,392.595 293.5,394.5C 291.102,394.259 289.102,394.926 287.5,396.5C 285.621,397.341 283.621,397.675 281.5,397.5C 275.28,397.957 269.28,398.957 263.5,400.5C 263.167,400.5 262.833,400.5 262.5,400.5C 251.15,400.593 239.817,400.259 228.5,399.5C 227.833,399.5 227.167,399.5 226.5,399.5C 223.781,398.087 220.781,397.42 217.5,397.5C 217.167,397.5 216.833,397.5 216.5,397.5C 211.153,395.076 205.487,393.409 199.5,392.5C 199.167,392.5 198.833,392.5 198.5,392.5C 197.365,390.787 195.698,390.12 193.5,390.5C 192.508,390.672 191.842,390.338 191.5,389.5C 190.365,387.787 188.698,387.12 186.5,387.5C 184.847,387.34 183.514,386.674 182.5,385.5C 182.027,384.094 181.027,383.427 179.5,383.5C 178.391,383.443 177.391,383.11 176.5,382.5C 176.027,381.094 175.027,380.427 173.5,380.5C 173.027,379.094 172.027,378.427 170.5,378.5C 170.027,377.094 169.027,376.427 167.5,376.5C 166.508,376.672 165.842,376.338 165.5,375.5C 165.027,374.094 164.027,373.427 162.5,373.5C 161.415,371.413 159.749,370.08 157.5,369.5C 156.738,367.738 155.404,366.738 153.5,366.5C 152.089,364.086 150.089,362.419 147.5,361.5C 147.167,360.5 146.5,359.833 145.5,359.5C 143.833,358.5 142.5,357.167 141.5,355.5C 141.643,353.738 141.309,352.071 140.5,350.5C 213.164,349.333 285.831,349.167 358.5,350C 359.416,350.278 360.082,350.778 360.5,351.5 Z"/></g>
<g><path style="opacity:0.012" fill="#e6f3ee" d="M 137.5,351.5 C 138.5,351.833 139.167,352.5 139.5,353.5C 138.167,353.5 137.5,352.833 137.5,351.5 Z"/></g>
<g><path style="opacity:0.02" fill="#d5e6ec" d="M 360.5,351.5 C 360.833,351.5 361.167,351.5 361.5,351.5C 361.291,352.922 360.791,354.255 360,355.5C 357.348,357.879 354.514,359.879 351.5,361.5C 354.5,358.167 357.5,354.833 360.5,351.5 Z"/></g>
<g><path style="opacity:0.004" fill="#e8f2ee" d="M 145.5,359.5 C 146.5,359.833 147.167,360.5 147.5,361.5C 146.167,361.5 145.5,360.833 145.5,359.5 Z"/></g>
<g><path style="opacity:0.671" fill="#b2d0e1" d="M 147.5,361.5 C 150.089,362.419 152.089,364.086 153.5,366.5C 150.911,365.581 148.911,363.914 147.5,361.5 Z"/></g>
<g><path style="opacity:0.02" fill="#dceff0" d="M 351.5,361.5 C 351.5,362.833 350.833,363.5 349.5,363.5C 349.833,362.5 350.5,361.833 351.5,361.5 Z"/></g>
<g><path style="opacity:0.004" fill="#f2f7f3" d="M 349.5,363.5 C 349.5,365.5 348.5,366.5 346.5,366.5C 346.5,366.167 346.5,365.833 346.5,365.5C 347.5,364.833 348.5,364.167 349.5,363.5 Z"/></g>
<g><path style="opacity:0.769" fill="#94bdd6" d="M 153.5,366.5 C 155.404,366.738 156.738,367.738 157.5,369.5C 155.596,369.262 154.262,368.262 153.5,366.5 Z"/></g>
<g><path style="opacity:1" fill="#72a1ce" d="M 346.5,365.5 C 346.5,365.833 346.5,366.167 346.5,366.5C 344.777,368.218 342.777,369.551 340.5,370.5C 341.248,367.476 343.248,365.81 346.5,365.5 Z"/></g>
<g><path style="opacity:0.769" fill="#9ec5d9" d="M 157.5,369.5 C 159.749,370.08 161.415,371.413 162.5,373.5C 160.251,372.92 158.585,371.587 157.5,369.5 Z"/></g>
<g><path style="opacity:0.251" fill="#bbdae8" d="M 162.5,373.5 C 164.027,373.427 165.027,374.094 165.5,375.5C 163.973,375.573 162.973,374.906 162.5,373.5 Z"/></g>
<g><path style="opacity:0.024" fill="#e0eef0" d="M 335.5,374.5 C 335.027,375.906 334.027,376.573 332.5,376.5C 332.973,375.094 333.973,374.427 335.5,374.5 Z"/></g>
<g><path style="opacity:0.51" fill="#97c2da" d="M 167.5,376.5 C 169.027,376.427 170.027,377.094 170.5,378.5C 168.973,378.573 167.973,377.906 167.5,376.5 Z"/></g>
<g><path style="opacity:0.302" fill="#b2d1df" d="M 170.5,378.5 C 172.027,378.427 173.027,379.094 173.5,380.5C 171.973,380.573 170.973,379.906 170.5,378.5 Z"/></g>
<g><path style="opacity:0.988" fill="#75a0cb" d="M 325.5,380.5 C 325.027,381.906 324.027,382.573 322.5,382.5C 321.163,379.313 322.163,378.646 325.5,380.5 Z"/></g>
<g><path style="opacity:0.071" fill="#cde4ed" d="M 329.5,378.5 C 328.713,380.104 327.38,380.771 325.5,380.5C 326.514,379.326 327.847,378.66 329.5,378.5 Z"/></g>
<g><path style="opacity:0.118" fill="#d1e7ed" d="M 173.5,380.5 C 175.027,380.427 176.027,381.094 176.5,382.5C 174.973,382.573 173.973,381.906 173.5,380.5 Z"/></g>
<g><path style="opacity:0.027" fill="#dbeef2" d="M 322.5,382.5 C 321.713,384.104 320.38,384.771 318.5,384.5C 319.514,383.326 320.847,382.66 322.5,382.5 Z"/></g>
<g><path style="opacity:0.322" fill="#abd0e2" d="M 179.5,383.5 C 181.027,383.427 182.027,384.094 182.5,385.5C 180.973,385.573 179.973,384.906 179.5,383.5 Z"/></g>
<g><path style="opacity:0.086" fill="#d1e6ec" d="M 318.5,384.5 C 317.713,386.104 316.38,386.771 314.5,386.5C 315.514,385.326 316.847,384.66 318.5,384.5 Z"/></g>
<g><path style="opacity:0.82" fill="#9dc2d9" d="M 186.5,387.5 C 188.698,387.12 190.365,387.787 191.5,389.5C 189.597,389.204 187.93,388.537 186.5,387.5 Z"/></g>
<g><path style="opacity:0.729" fill="#a4c7dd" d="M 193.5,390.5 C 195.698,390.12 197.365,390.787 198.5,392.5C 196.597,392.204 194.93,391.537 193.5,390.5 Z"/></g>
<g><path style="opacity:0.8" fill="#a3c9e0" d="M 199.5,392.5 C 205.487,393.409 211.153,395.076 216.5,397.5C 210.513,396.591 204.847,394.924 199.5,392.5 Z"/></g>
<g><path style="opacity:0.008" fill="#d2e7ee" d="M 305.5,390.5 C 301.915,392.806 297.915,394.139 293.5,394.5C 297.216,392.595 301.216,391.261 305.5,390.5 Z"/></g>
<g><path style="opacity:0.043" fill="#d0e9f1" d="M 293.5,394.5 C 291.786,395.738 289.786,396.405 287.5,396.5C 289.102,394.926 291.102,394.259 293.5,394.5 Z"/></g>
<g><path style="opacity:0.337" fill="#bddae8" d="M 217.5,397.5 C 220.781,397.42 223.781,398.087 226.5,399.5C 223.219,399.58 220.219,398.913 217.5,397.5 Z"/></g>
<g><path style="opacity:0.169" fill="#c0dcea" d="M 281.5,397.5 C 275.783,399.415 269.783,400.415 263.5,400.5C 269.28,398.957 275.28,397.957 281.5,397.5 Z"/></g>
<g><path style="opacity:0.088" fill="#dceef3" d="M 228.5,399.5 C 239.817,400.259 251.15,400.593 262.5,400.5C 258.347,401.166 254.013,401.499 249.5,401.5C 242.276,401.628 235.276,400.961 228.5,399.5 Z"/></g>
</svg>
